<?xml version="1.0" encoding="UTF-8"?>
<!--Generator: Apple Native CoreSVG 326-->
<!DOCTYPE svg
PUBLIC "-//W3C//DTD SVG 1.1//EN"
       "http://www.w3.org/Graphics/SVG/1.1/DTD/svg11.dtd">
<svg version="1.1" xmlns="http://www.w3.org/2000/svg" xmlns:xlink="http://www.w3.org/1999/xlink" viewBox="0 0 46.1777 45.8262">
 <g>
  <rect height="45.8262" opacity="0" width="46.1777" x="0" y="0"/>
  <path d="M22.8867 45.791C35.5078 45.791 45.791 35.5078 45.791 22.9043C45.791 10.2832 35.5078 0 22.8867 0C10.2832 0 0 10.2832 0 22.9043C0 35.5078 10.2832 45.791 22.8867 45.791Z" fill="#98989d"/>
  <path d="M22.8867 42.8555C17.4023 42.8555 12.1289 40.5352 8.68359 36.8613C11.1445 32.9414 16.6465 30.5508 22.8867 30.5508C29.0742 30.5508 34.5938 32.9062 37.0898 36.8613C33.6445 40.5352 28.3535 42.8555 22.8867 42.8555ZM22.8867 26.7012C18.5273 26.666 15.1348 23.0098 15.1348 18.1406C15.0996 13.5703 18.5625 9.77344 22.8867 9.77344C27.2109 9.77344 30.6387 13.5703 30.6387 18.1406C30.6387 23.0098 27.2461 26.7363 22.8867 26.7012Z" fill="white"/>
 </g>
</svg>
